<svg width="694" height="347" viewBox="0 0 694 347" fill="none" xmlns="http://www.w3.org/2000/svg">
<path d="M0 0H694V347H0V0Z" fill="#3B5998"/>
<path d="M375.577 148.56C367.004 147.475 359.655 150.728 353.124 161.03V99.2205L330.262 103.016V245.611H353.124V236.936C356.389 239.647 359.247 243.442 362.513 245.069C375.577 251.575 393.131 246.153 399.254 222.839C403.337 207.658 402.928 192.477 400.071 176.753C397.213 159.945 388.64 150.728 375.577 148.56ZM378.842 210.369C378.026 219.586 372.311 224.466 365.371 223.924C363.738 223.924 362.105 223.381 360.88 222.839C355.573 218.502 353.94 211.995 353.532 207.658C353.124 201.152 352.715 187.055 355.165 180.549C357.206 175.669 360.88 172.958 365.779 172.416C372.719 171.874 377.618 176.753 378.842 185.97C379.659 193.561 379.659 202.236 378.842 210.369ZM455.999 150.186C448.242 147.475 440.078 147.475 432.321 150.186C420.482 154.524 412.726 164.283 409.868 180.006C408.644 188.681 408.235 197.899 408.644 206.574C409.46 226.634 418.849 241.274 433.546 245.611H434.362L435.995 246.153H436.404C437.22 246.153 438.037 246.695 438.853 246.695C441.711 247.238 445.385 247.238 448.242 246.695H448.651C463.755 245.611 475.186 233.141 478.452 213.622C480.085 203.32 480.493 192.477 478.452 181.633C476.002 165.367 468.246 154.524 455.999 150.186ZM456.815 208.742C456.815 209.285 456.815 209.827 456.407 210.369C454.774 219.044 449.875 223.924 443.752 223.924C437.628 223.924 431.913 217.959 431.505 208.742C431.097 201.694 431.097 195.188 431.505 188.139C432.321 177.295 437.22 171.331 444.568 171.874C450.692 171.874 455.182 176.753 456.815 184.886C458.04 192.477 456.815 207.116 456.815 208.742ZM115.122 149.644H98.793V135.547C100.018 121.992 116.755 124.703 116.755 124.703V101.389C116.347 101.389 83.28 90.5455 76.7483 124.161C75.9318 128.499 75.9318 147.475 75.9318 149.644H61.6436V175.127H76.7483V244.527H98.3847V175.669H115.122L117.164 150.186H115.122V149.644ZM166.968 162.114L166.152 161.03L165.744 160.488C160.437 153.439 158.804 151.813 154.721 150.186C139.208 144.222 124.512 155.066 119.613 175.669C116.755 188.139 116.755 201.152 118.388 214.164C122.062 241.816 137.575 251.033 154.313 246.695C159.212 245.069 163.294 241.274 166.56 235.309C166.968 234.767 166.968 234.225 167.377 233.683V246.153H187.788V150.186H166.56V162.114H166.968ZM164.927 210.369C164.111 219.044 158.804 224.466 152.68 223.924C146.148 223.381 141.658 219.044 140.433 210.369C138.8 198.441 140.841 184.344 140.841 183.259C142.474 175.127 146.965 171.331 153.088 171.874C159.62 171.874 164.111 176.753 164.927 185.428C165.335 194.103 165.335 202.236 164.927 210.369ZM252.698 238.563C251.881 233.683 250.657 228.803 249.432 224.466L248.615 219.586C248.615 219.586 222.08 236.394 217.998 204.405C217.589 198.983 217.589 193.561 218.406 188.139C219.631 178.38 224.121 172.958 231.061 171.874C233.511 171.331 235.96 171.874 238.409 172.416C241.675 172.958 244.941 174.585 248.615 175.669C249.84 170.789 251.065 165.367 252.289 160.488C252.289 159.403 252.698 158.861 252.698 158.319L253.514 155.066C253.106 154.524 253.106 153.981 252.698 153.981C251.881 153.439 251.065 152.897 249.432 151.813L247.391 150.728L246.574 150.186C239.634 147.475 232.286 147.475 225.346 148.56C209.833 150.728 199.627 162.656 196.769 182.717C195.137 193.019 195.137 203.863 197.178 214.164C199.627 229.888 206.975 240.189 218.406 244.527C226.162 247.238 233.919 247.78 241.675 246.153C244.941 245.611 249.432 243.442 253.106 241.816L254.331 241.274L252.698 238.563ZM322.506 201.152C322.506 194.645 322.506 188.139 321.689 181.633C319.648 163.741 311.484 152.355 298.42 149.644C293.521 148.56 288.214 148.56 282.907 149.102C269.027 150.728 258.413 162.656 255.964 180.006C254.739 190.85 254.331 201.694 255.555 212.538C257.188 228.261 262.904 238.563 273.109 243.442C277.6 245.069 300.461 253.202 320.465 239.647L319.648 235.852C318.832 230.43 317.607 225.55 316.382 220.128V219.586L315.158 220.128C314.341 220.67 313.525 220.67 312.708 221.213H312.3C308.218 222.839 304.544 223.924 300.461 224.466C296.787 225.008 292.705 225.008 289.031 224.466C282.499 222.839 278.008 218.502 278.008 207.658H320.057H322.914L322.506 201.152ZM302.094 188.139H277.6C277.6 181.633 278.417 175.669 282.499 171.874C286.989 168.078 292.297 168.078 296.787 171.331C302.094 175.127 302.502 181.633 302.094 188.139ZM632.357 150.728H608.271L587.451 194.103V99.7626L564.59 103.558V246.153H587.451V202.778L608.271 246.695H632.357L609.495 199.525L632.357 150.728ZM533.155 150.186C525.399 147.475 517.234 147.475 509.478 150.186C497.639 154.524 489.882 164.283 487.433 180.006C486.208 188.681 485.8 197.899 486.208 206.574C487.025 226.634 496.414 241.274 511.111 245.611H511.927L513.56 246.153H513.968C514.785 246.153 515.601 246.695 516.418 246.695C519.275 247.238 522.95 247.238 525.807 246.695H526.215C541.32 245.611 552.751 233.141 556.017 213.622C557.65 203.32 558.058 192.477 556.017 181.633C553.567 165.367 545.811 155.066 533.155 150.186ZM534.38 208.742C534.38 209.285 534.38 209.827 533.972 210.369C532.339 219.044 527.44 223.924 521.317 223.924C514.785 223.381 509.478 217.959 509.069 208.742C508.661 201.694 508.661 195.188 509.069 188.139C509.886 177.295 514.785 171.331 522.133 171.874C528.257 171.874 532.747 176.753 534.38 184.886C535.605 193.019 534.38 207.116 534.38 208.742Z" fill="white"/>
</svg>
