<svg width="616" height="616" viewBox="0 0 616 616" fill="none" xmlns="http://www.w3.org/2000/svg">
<path d="M327.271 529.375H558.25V587.125H327.271V529.375Z" fill="#0093BA"/>
<path d="M48.125 163.625H317.625V231H48.125V163.625Z" fill="#798B9B"/>
<path d="M28.875 57.75H317.625V173.25H28.875V57.75Z" fill="#354F5C"/>
<path d="M48.125 173.25H317.625V192.5H48.125V173.25Z" fill="#57646F"/>
<path d="M231 86.625H250.25V144.375H231V86.625Z" fill="#798B9B"/>
<path d="M192.5 86.625H211.75V144.375H192.5V86.625Z" fill="#798B9B"/>
<path d="M57.75 105.875H77V125.125H57.75V105.875Z" fill="#FFC119"/>
<path d="M96.25 105.875H115.5V125.125H96.25V105.875Z" fill="#EA732D"/>
<path d="M48.125 327.25H317.625V394.625H48.125V327.25Z" fill="#798B9B"/>
<path d="M28.875 221.375H317.625V336.875H28.875V221.375Z" fill="#354F5C"/>
<path d="M48.125 336.875H317.625V356.125H48.125V336.875Z" fill="#57646F"/>
<path d="M231 250.25H250.25V308H231V250.25Z" fill="#798B9B"/>
<path d="M192.5 250.25H211.75V308H192.5V250.25Z" fill="#798B9B"/>
<path d="M57.75 269.5H77V288.75H57.75V269.5Z" fill="#FFC119"/>
<path d="M96.25 269.5H115.5V288.75H96.25V269.5Z" fill="#EA732D"/>
<path d="M28.875 385H317.625V500.5H28.875V385Z" fill="#354F5C"/>
<path d="M231 413.875H250.25V471.625H231V413.875Z" fill="#798B9B"/>
<path d="M192.5 413.875H211.75V471.625H192.5V413.875Z" fill="#798B9B"/>
<path d="M57.75 433.125H77V452.375H57.75V433.125Z" fill="#FFC119"/>
<path d="M96.25 433.125H115.5V452.375H96.25V433.125Z" fill="#EA732D"/>
<path d="M298.375 28.875H587.125V548.625H298.375V28.875Z" fill="#0093BA"/>
<path d="M346.5 77H539V192.5H346.5V77Z" fill="#FFC119"/>
<path d="M519.75 221.375H539V240.625H519.75V221.375Z" fill="#FFC119"/>
<path d="M481.25 221.375H500.5V240.625H481.25V221.375Z" fill="#EA732D"/>
<path d="M442.75 221.375H462V240.625H442.75V221.375Z" fill="#FFC119"/>
<path d="M346.5 259.875H539V279.125H346.5V259.875Z" fill="#047FA7"/>
<path d="M519.75 298.375H539V317.625H519.75V298.375Z" fill="#FFC119"/>
<path d="M500.5 500.5C521.763 500.5 539 483.263 539 462C539 440.737 521.763 423.5 500.5 423.5C479.237 423.5 462 440.737 462 462C462 483.263 479.237 500.5 500.5 500.5Z" fill="#FFC119"/>
<path d="M327.25 548.625H558.25V567.875H327.25V548.625Z" fill="#047FA7"/>
<path d="M539 192.5V77H452.375L423.5 192.5H539Z" fill="#FAAC2B"/>
</svg>
