<svg width="694" height="347" viewBox="0 0 694 347" fill="none" xmlns="http://www.w3.org/2000/svg">
<g clip-path="url(#clip0)">
<path d="M0.112671 0H693.89V347H0.112671V0Z" fill="#EE3424"/>
<path d="M119.721 85.8112V88.7814C119.721 88.7814 119.711 94.0215 119.711 98.5763C115.48 93.5296 109.048 85.8112 109.048 85.8112H79.6788L79.6927 243.099L96.6117 257.511L114.251 255.124L114.377 241.182C120.17 246.323 128.103 253.345 128.103 253.345L156.994 250.17V102.001L141.316 85.845L119.721 85.8112V85.8112ZM297.61 85.7924H247.405V106.745C247.405 106.745 260.675 117.995 262.501 119.539V227.527L279.118 241.912L299.212 241.36V119.527C302.843 119.494 314.063 119.407 314.063 119.407V104.156L298.834 85.7924H297.61ZM500.536 85.8112H480.76V230.386L497.625 247.258L517.577 249.041V102.397L501.65 85.8112H500.536ZM598.779 174.197L610.737 103.533L594.676 85.8206H573.748C573.748 85.8206 572.674 93.1034 571.979 97.6789C567.831 92.8274 561.851 85.8206 561.851 85.8206H540.277C540.277 85.8206 552.578 155.273 552.762 156.281C552.609 157.293 540.977 235.354 540.977 235.354L563.832 254.111L577.48 255.862V242.699L596.283 258.489L614.316 261.166C614.321 261.17 598.974 175.274 598.779 174.197V174.197ZM446.311 205.506V101.877L430.597 85.8112H409.482V226.866L426.234 242.686L464.454 244.736L463.608 226.462C463.608 226.459 450.16 210.166 446.311 205.506V205.506ZM217.068 117.094H233.477V101.96L217.823 85.7849H216.721L180.192 85.8112V232.531L196.702 246.557L233.477 244.072V227.839C233.477 227.839 218.366 209.811 217.068 208.256V182.037H233.701V165.678C233.701 165.678 218.523 149.305 217.068 147.727V117.094V117.094ZM370.314 117.079H386.723V101.948L371.069 85.7849H369.967L333.435 85.8112V225.88L350.183 240.882L370.314 241.032V182.029L386.947 182.037V165.678C386.947 165.678 371.769 149.305 370.314 147.727V117.079Z" fill="black"/>
<path d="M485.133 227.69C485.133 227.69 490.234 227.963 498.981 228.652V89.9963L485.133 90.0263V227.69ZM251.788 103.848H266.885V224.463C266.885 224.463 270.121 224.187 280.703 223.93L280.778 103.877H296.057V90.0413L251.788 90.0263V103.848V103.848ZM124.533 209.188L123.554 209.312L106.677 90.0395L84.2066 90.0132L84.217 239.727C84.217 239.727 88.677 239.034 98.1715 237.872L97.1931 124.075L98.1662 123.975L114.222 236.09C114.222 236.09 119.709 235.394 138.369 233.402V90.0244H124.035L124.533 209.188ZM592.853 89.9963H577.233L569.387 143.49H568.464L560.316 89.9963H544.984L556.959 156.163L545.383 233.499L560.284 235.03L567.954 171.268L568.893 171.288L576.336 236.834L592.679 238.788L581.002 158.048L592.853 89.9963ZM427.785 89.9888L413.869 90.0151V223.982C413.869 223.982 423.297 224.272 446.043 225.368V211.771C446.043 211.771 443.496 211.491 427.785 210.898V89.9888V89.9888ZM184.57 229.348C184.57 229.348 192.785 228.732 216.54 227.086V213.401L198.578 214.732V166.767L216.54 166.752V152.806L198.511 152.818V103.856H216.606V90.0132L184.572 90.0244L184.57 229.348V229.348ZM337.816 222.884H351.832V166.767L369.79 166.752V152.804L351.757 152.819V103.856H369.853V90.0132L337.816 90.0244V222.884Z" fill="white"/>
</g>
<defs>
<clipPath id="clip0">
<rect width="694" height="347" fill="white"/>
</clipPath>
</defs>
</svg>
