<svg width="80" height="80" viewBox="0 0 80 80" fill="none" xmlns="http://www.w3.org/2000/svg">
<path d="M40 0C17.9431 0 0 17.9431 0 40C0 62.0569 17.9431 80 40 80C62.0569 80 80 62.0569 80 40C80 17.9431 62.0569 0 40 0Z" fill="#F44336"/>
<path d="M54.7302 50.0165C56.0333 51.3202 56.0333 53.4265 54.7302 54.7302C54.0802 55.3802 53.2269 55.7068 52.373 55.7068C51.5198 55.7068 50.6665 55.3802 50.0165 54.7302L40 44.7131L29.9835 54.7302C29.3335 55.3802 28.4802 55.7068 27.627 55.7068C26.7731 55.7068 25.9198 55.3802 25.2698 54.7302C23.9667 53.4265 23.9667 51.3202 25.2698 50.0165L35.2869 40L25.2698 29.9835C23.9667 28.6798 23.9667 26.5735 25.2698 25.2698C26.5735 23.9667 28.6798 23.9667 29.9835 25.2698L40 35.2869L50.0165 25.2698C51.3202 23.9667 53.4265 23.9667 54.7302 25.2698C56.0333 26.5735 56.0333 28.6798 54.7302 29.9835L44.7131 40L54.7302 50.0165Z" fill="#FAFAFA"/>
</svg>
