<svg width="80" height="76" viewBox="0 0 80 76" fill="none" xmlns="http://www.w3.org/2000/svg">
<path d="M40 0C17.9441 0 0 17.0018 0 37.9002C0 58.7987 17.9441 75.8008 40 75.8008C62.0559 75.8008 80 58.7987 80 37.9002C80 17.0018 62.0563 0 40 0ZM62.9687 31.4985L37.8387 55.3093C36.7702 56.3217 35.3498 56.879 33.8389 56.879C32.3279 56.879 30.9075 56.3217 29.839 55.3093L17.0313 43.174C15.9628 42.1615 15.3742 40.8157 15.3742 39.3841C15.3742 37.952 15.9628 36.6062 17.0313 35.5938C18.0994 34.5813 19.5198 34.0237 21.0312 34.0237C22.5421 34.0237 23.9629 34.5813 25.031 35.5942L33.8384 43.9388L54.9681 23.9183C56.0366 22.9059 57.457 22.3487 58.968 22.3487C60.479 22.3487 61.8993 22.9059 62.9679 23.9183C65.1742 26.0089 65.1742 29.4088 62.9687 31.4985Z" fill="#26AE60"/>
</svg>
